<svg width="19" height="19" viewBox="0 0 19 19" fill="none" xmlns="http://www.w3.org/2000/svg">
<path fill-rule="evenodd" clip-rule="evenodd" d="M18.3635 9.71243C18.3635 9.04994 18.3041 8.41294 18.1936 7.80142H9.39453V11.4153H14.4226C14.206 12.5832 13.5478 13.5727 12.5583 14.2351V16.5793H15.5777C17.3443 14.9528 18.3635 12.5577 18.3635 9.71243Z" fill="#4285F4"/>
<path fill-rule="evenodd" clip-rule="evenodd" d="M9.39584 18.8428C11.9184 18.8428 14.0332 18.0062 15.579 16.5793L12.5596 14.2351C11.723 14.7957 10.6529 15.1269 9.39584 15.1269C6.9625 15.1269 4.90286 13.4834 4.16818 11.2752H1.04688V13.6958C2.58417 16.7491 5.7437 18.8428 9.39584 18.8428Z" fill="#34A853"/>
<path fill-rule="evenodd" clip-rule="evenodd" d="M4.16776 11.2752C3.98091 10.7146 3.87474 10.1159 3.87474 9.5001C3.87474 8.88433 3.98091 8.28555 4.16776 7.72499V5.30438H1.04646C0.413702 6.56565 0.0527344 7.99253 0.0527344 9.5001C0.0527344 11.0077 0.413702 12.4346 1.04646 13.6958L4.16776 11.2752Z" fill="#FBBC05"/>
<path fill-rule="evenodd" clip-rule="evenodd" d="M9.39584 3.87325C10.7675 3.87325 11.9991 4.34463 12.9673 5.27041L15.6469 2.59076C14.029 1.08319 11.9141 0.15741 9.39584 0.15741C5.7437 0.15741 2.58417 2.25102 1.04688 5.30438L4.16818 7.72499C4.90286 5.51672 6.96249 3.87325 9.39584 3.87325Z" fill="#EA4335"/>
</svg>
