<svg width="27" height="27" viewBox="0 0 27 27" fill="none" xmlns="http://www.w3.org/2000/svg">
<path d="M11.4035 8.50266H15.6049C17.2054 8.50266 18.5058 9.80307 18.5058 11.4036V15.6049C18.5058 16.3743 18.2001 17.1121 17.6561 17.6562C17.1121 18.2002 16.3742 18.5058 15.6049 18.5058H11.4035C9.80302 18.5058 8.50261 17.2054 8.50261 15.6049V11.4036C8.50261 10.6342 8.80824 9.89634 9.35227 9.35231C9.8963 8.80829 10.6342 8.50266 11.4035 8.50266ZM11.3035 9.50297C10.826 9.50297 10.368 9.69267 10.0303 10.0303C9.69263 10.368 9.50293 10.826 9.50293 11.3035V15.7049C9.50293 16.7002 10.3082 17.5055 11.3035 17.5055H15.7049C16.1824 17.5055 16.6404 17.3158 16.9781 16.9781C17.3157 16.6405 17.5055 16.1825 17.5055 15.7049V11.3035C17.5055 10.3082 16.7002 9.50297 15.7049 9.50297H11.3035ZM16.13 10.2532C16.2958 10.2532 16.4549 10.3191 16.5721 10.4363C16.6893 10.5536 16.7552 10.7126 16.7552 10.8784C16.7552 11.0442 16.6893 11.2032 16.5721 11.3205C16.4549 11.4377 16.2958 11.5036 16.13 11.5036C15.9642 11.5036 15.8052 11.4377 15.6879 11.3205C15.5707 11.2032 15.5048 11.0442 15.5048 10.8784C15.5048 10.7126 15.5707 10.5536 15.6879 10.4363C15.8052 10.3191 15.9642 10.2532 16.13 10.2532ZM13.5042 11.0034C14.1674 11.0034 14.8035 11.2669 15.2725 11.7359C15.7415 12.2049 16.005 12.841 16.005 13.5042C16.005 14.1675 15.7415 14.8036 15.2725 15.2726C14.8035 15.7415 14.1674 16.005 13.5042 16.005C12.8409 16.005 12.2049 15.7415 11.7359 15.2726C11.2669 14.8036 11.0034 14.1675 11.0034 13.5042C11.0034 12.841 11.2669 12.2049 11.7359 11.7359C12.2049 11.2669 12.8409 11.0034 13.5042 11.0034ZM13.5042 12.0038C13.1062 12.0038 12.7246 12.1618 12.4432 12.4432C12.1618 12.7246 12.0037 13.1063 12.0037 13.5042C12.0037 13.9022 12.1618 14.2838 12.4432 14.5652C12.7246 14.8466 13.1062 15.0047 13.5042 15.0047C13.9021 15.0047 14.2838 14.8466 14.5652 14.5652C14.8466 14.2838 15.0047 13.9022 15.0047 13.5042C15.0047 13.1063 14.8466 12.7246 14.5652 12.4432C14.2838 12.1618 13.9021 12.0038 13.5042 12.0038Z" fill="white"/>
<circle cx="13.2542" cy="13.2542" r="13.0041" stroke="white" stroke-width="0.500158"/>
</svg>
