<svg width="28" height="27" viewBox="0 0 28 27" fill="none" xmlns="http://www.w3.org/2000/svg">
<path d="M11.4818 10.0031C11.4817 10.2684 11.3762 10.5228 11.1885 10.7103C11.0008 10.8978 10.7463 11.0031 10.481 11.003C10.2157 11.0028 9.9613 10.8973 9.7738 10.7096C9.5863 10.5219 9.48104 10.2674 9.48117 10.0021C9.4813 9.73683 9.58682 9.48245 9.77451 9.29495C9.9622 9.10745 10.2167 9.00219 10.482 9.00232C10.7473 9.00245 11.0017 9.10797 11.1892 9.29566C11.3767 9.48335 11.4819 9.73784 11.4818 10.0031ZM11.5118 11.7437H9.51118V18.0057H11.5118V11.7437ZM14.6728 11.7437H12.6822V18.0057H14.6528V14.7196C14.6528 12.889 17.0386 12.719 17.0386 14.7196V18.0057H19.0142V14.0394C19.0142 10.9534 15.4831 11.0685 14.6528 12.5839L14.6728 11.7437Z" fill="white"/>
<circle cx="13.7625" cy="13.2542" r="13.0041" stroke="white" stroke-width="0.500158"/>
</svg>
